HIERARCHY
ROOT Hips
{
	OFFSET 0.000000 71.427986 0.000000
	CHANNELS 6 Xposition Yposition Zposition Xrotation Yrotation Zrotation
	JOINT Pelvis
	{
		OFFSET 0.000000 0.000000 0.000000
		CHANNELS 3 Xrotation Yrotation Zrotation
		JOINT LeftUpLeg
		{
			OFFSET 6.797100 -2.508499 -1.318700
			CHANNELS 3 Xrotation Yrotation Zrotation
			JOINT LeftLeg
			{
				OFFSET 0.069008 -29.241863 0.690200
				CHANNELS 3 Xrotation Yrotation Zrotation
				JOINT LeftFoot
				{
					OFFSET -0.069008 -29.568123 -0.266800
					CHANNELS 3 Xrotation Yrotation Zrotation
					JOINT LeftToeBase
					{
						OFFSET 3.145500 -8.631000 16.059900
						CHANNELS 3 Xrotation Yrotation Zrotation
						End Site
						{
							OFFSET 0.000000 18.501587 0.000000
						}
					}
				}
			}
			JOINT Left_ShortSleeve
			{
				OFFSET 0.265923 -10.480953 1.153800
				CHANNELS 3 Xrotation Yrotation Zrotation
				End Site
				{
					OFFSET 1.725763 19.823879 0.000000
				}
			}
		}
		JOINT RightUpLeg
		{
			OFFSET -6.797100 -2.508499 -1.318700
			CHANNELS 3 Xrotation Yrotation Zrotation
			JOINT RightLeg
			{
				OFFSET -0.082453 -29.241932 0.688000
				CHANNELS 3 Xrotation Yrotation Zrotation
				JOINT RightFoot
				{
					OFFSET 0.082453 -29.568058 -0.264600
					CHANNELS 3 Xrotation Yrotation Zrotation
					JOINT RightToeBase
					{
						OFFSET -3.115300 -8.682800 16.113400
						CHANNELS 3 Xrotation Yrotation Zrotation
						End Site
						{
							OFFSET 0.000000 18.567114 0.000000
						}
					}
				}
			}
			JOINT Right_ShortSleeve
			{
				OFFSET -0.265923 -10.480953 1.153800
				CHANNELS 3 Xrotation Yrotation Zrotation
				End Site
				{
					OFFSET -1.725766 19.823910 0.000000
				}
			}
		}
	}
	JOINT Spine
	{
		OFFSET 0.000000 13.368103 0.470500
		CHANNELS 3 Xrotation Yrotation Zrotation
		JOINT Spine1
		{
			OFFSET 0.147000 13.837402 0.538800
			CHANNELS 3 Xrotation Yrotation Zrotation
			JOINT Spine2
			{
				OFFSET 0.168000 16.242897 -1.435500
				CHANNELS 3 Xrotation Yrotation Zrotation
				JOINT Neck
				{
					OFFSET 0.217200 18.631500 -1.679100
					CHANNELS 3 Xrotation Yrotation Zrotation
					JOINT Head
					{
						OFFSET 0.000000 6.599396 1.385900
						CHANNELS 3 Xrotation Yrotation Zrotation
						JOINT Hat
						{
							OFFSET -0.532200 27.220596 -10.096100
							CHANNELS 3 Xrotation Yrotation Zrotation
							End Site
							{
								OFFSET 0.000000 22.029861 0.000000
							}
						}
						JOINT HairD
						{
							OFFSET -10.777400 17.437393 -1.325900
							CHANNELS 3 Xrotation Yrotation Zrotation
							JOINT HairD1
							{
								OFFSET -3.290299 -11.051193 1.062200
								CHANNELS 3 Xrotation Yrotation Zrotation
								End Site
								{
									OFFSET 0.000000 11.579437 0.000000
								}
							}
						}
						JOINT HairB
						{
							OFFSET -10.777400 17.437393 1.467900
							CHANNELS 3 Xrotation Yrotation Zrotation
							JOINT HairB1
							{
								OFFSET -1.561200 -12.956299 3.590200
								CHANNELS 3 Xrotation Yrotation Zrotation
								End Site
								{
									OFFSET 0.000000 13.534866 0.000000
								}
							}
						}
						JOINT HairA
						{
							OFFSET 9.713100 17.437393 1.467900
							CHANNELS 3 Xrotation Yrotation Zrotation
							JOINT HairA1
							{
								OFFSET 1.561200 -12.956299 3.590200
								CHANNELS 3 Xrotation Yrotation Zrotation
								End Site
								{
									OFFSET 0.000000 13.534866 0.000000
								}
							}
						}
						JOINT HairC
						{
							OFFSET 9.713100 17.437393 -1.325900
							CHANNELS 3 Xrotation Yrotation Zrotation
							JOINT HairC1
							{
								OFFSET 3.290300 -11.051193 1.062200
								CHANNELS 3 Xrotation Yrotation Zrotation
								End Site
								{
									OFFSET 0.000000 11.579437 0.000000
								}
							}
						}
					}
				}
				JOINT LeftShoulder
				{
					OFFSET 5.101800 15.108002 -2.763700
					CHANNELS 3 Xrotation Yrotation Zrotation
					JOINT LeftArm
					{
						OFFSET 9.825497 2.506317 -1.597400
						CHANNELS 3 Xrotation Yrotation Zrotation
						JOINT LeftForeArm
						{
							OFFSET 21.966244 0.000000 0.000000
							CHANNELS 3 Xrotation Yrotation Zrotation
							JOINT LeftHand
							{
								OFFSET 33.879036 0.000000 0.000000
								CHANNELS 3 Xrotation Yrotation Zrotation
								JOINT LeftHandThumb1
								{
									OFFSET 6.715286 -2.359680 3.363841
									CHANNELS 3 Xrotation Yrotation Zrotation
									JOINT LeftHandThumb2
									{
										OFFSET 2.507072 -1.447464 1.447461
										CHANNELS 3 Xrotation Yrotation Zrotation
										JOINT LeftHandThumb3
										{
											OFFSET 2.898338 -1.673355 1.673357
											CHANNELS 3 Xrotation Yrotation Zrotation
											End Site
											{
												OFFSET -0.295959 3.727692 -0.131651
											}
										}
									}
								}
								JOINT LeftHandIndex1
								{
									OFFSET 14.190811 -0.254547 3.840278
									CHANNELS 3 Xrotation Yrotation Zrotation
									JOINT LeftHandIndex2
									{
										OFFSET 3.551727 0.000000 -0.000000
										CHANNELS 3 Xrotation Yrotation Zrotation
										JOINT LeftHandIndex3
										{
											OFFSET 2.894196 0.000000 0.000000
											CHANNELS 3 Xrotation Yrotation Zrotation
											End Site
											{
												OFFSET -1.000603 2.690872 0.366626
											}
										}
									}
								}
								JOINT LeftHandMiddle1
								{
									OFFSET 13.776489 0.000000 0.000000
									CHANNELS 3 Xrotation Yrotation Zrotation
									JOINT LeftHandMiddle2
									{
										OFFSET 3.438232 0.000000 0.000000
										CHANNELS 3 Xrotation Yrotation Zrotation
										JOINT LeftHandMiddle3
										{
											OFFSET 3.691551 0.000000 0.000000
											CHANNELS 3 Xrotation Yrotation Zrotation
											End Site
											{
												OFFSET -1.082298 3.499527 0.457670
											}
										}
									}
								}
								JOINT LeftHandRing1
								{
									OFFSET 13.966164 -0.268127 -3.067488
									CHANNELS 3 Xrotation Yrotation Zrotation
									JOINT LeftHandRing2
									{
										OFFSET 3.162567 0.000000 0.000000
										CHANNELS 3 Xrotation Yrotation Zrotation
										JOINT LeftHandRing3
										{
											OFFSET 3.324348 0.000000 0.000000
											CHANNELS 3 Xrotation Yrotation Zrotation
											End Site
											{
												OFFSET -0.861900 3.184998 0.405154
											}
										}
									}
								}
								JOINT LeftHandPinky1
								{
									OFFSET 13.131393 -0.168503 -5.746925
									CHANNELS 3 Xrotation Yrotation Zrotation
									JOINT LeftHandPinky2
									{
										OFFSET 2.849182 0.000000 0.000000
										CHANNELS 3 Xrotation Yrotation Zrotation
										JOINT LeftHandPinky3
										{
											OFFSET 2.805038 0.000000 0.000000
											CHANNELS 3 Xrotation Yrotation Zrotation
											End Site
											{
												OFFSET -0.882500 2.642609 0.325652
											}
										}
									}
								}
							}
							JOINT Left_Sleeve
							{
								OFFSET 6.592125 -0.646545 0.805568
								CHANNELS 3 Xrotation Yrotation Zrotation
								End Site
								{
									OFFSET -0.000179 20.275787 -0.000000
								}
							}
						}
					}
				}
				JOINT RightShoulder
				{
					OFFSET -5.731700 15.108002 -2.763700
					CHANNELS 3 Xrotation Yrotation Zrotation
					JOINT RightArm
					{
						OFFSET -9.825497 2.506317 -1.597400
						CHANNELS 3 Xrotation Yrotation Zrotation
						JOINT RightForeArm
						{
							OFFSET -21.966242 0.000000 0.000000
							CHANNELS 3 Xrotation Yrotation Zrotation
							JOINT RightHand
							{
								OFFSET -33.879032 0.000000 0.000000
								CHANNELS 3 Xrotation Yrotation Zrotation
								JOINT RightHandThumb1
								{
									OFFSET -6.715286 -2.359680 3.363841
									CHANNELS 3 Xrotation Yrotation Zrotation
									JOINT RightHandThumb2
									{
										OFFSET -2.507072 -1.447464 1.447461
										CHANNELS 3 Xrotation Yrotation Zrotation
										JOINT RightHandThumb3
										{
											OFFSET -2.898338 -1.673355 1.673357
											CHANNELS 3 Xrotation Yrotation Zrotation
											End Site
											{
												OFFSET 0.295959 3.727692 -0.131651
											}
										}
									}
								}
								JOINT RightHandIndex1
								{
									OFFSET -14.190811 -0.254547 3.840278
									CHANNELS 3 Xrotation Yrotation Zrotation
									JOINT RightHandIndex2
									{
										OFFSET -3.551727 0.000000 -0.000000
										CHANNELS 3 Xrotation Yrotation Zrotation
										JOINT RightHandIndex3
										{
											OFFSET -2.894196 0.000000 0.000000
											CHANNELS 3 Xrotation Yrotation Zrotation
											End Site
											{
												OFFSET 1.000603 2.690872 0.366626
											}
										}
									}
								}
								JOINT RightHandMiddle1
								{
									OFFSET -13.776489 0.000000 0.000000
									CHANNELS 3 Xrotation Yrotation Zrotation
									JOINT RightHandMiddle2
									{
										OFFSET -3.438232 0.000000 0.000000
										CHANNELS 3 Xrotation Yrotation Zrotation
										JOINT RightHandMiddle3
										{
											OFFSET -3.691551 0.000000 0.000000
											CHANNELS 3 Xrotation Yrotation Zrotation
											End Site
											{
												OFFSET 1.082298 3.499527 0.457670
											}
										}
									}
								}
								JOINT RightHandRing1
								{
									OFFSET -13.966164 -0.268127 -3.067488
									CHANNELS 3 Xrotation Yrotation Zrotation
									JOINT RightHandRing2
									{
										OFFSET -3.162567 0.000000 0.000000
										CHANNELS 3 Xrotation Yrotation Zrotation
										JOINT RightHandRing3
										{
											OFFSET -3.324348 0.000000 0.000000
											CHANNELS 3 Xrotation Yrotation Zrotation
											End Site
											{
												OFFSET 0.861900 3.184998 0.405154
											}
										}
									}
								}
								JOINT RightHandPinky1
								{
									OFFSET -13.131393 -0.168503 -5.746925
									CHANNELS 3 Xrotation Yrotation Zrotation
									JOINT RightHandPinky2
									{
										OFFSET -2.849182 0.000000 0.000000
										CHANNELS 3 Xrotation Yrotation Zrotation
										JOINT RightHandPinky3
										{
											OFFSET -2.805038 0.000000 0.000000
											CHANNELS 3 Xrotation Yrotation Zrotation
											End Site
											{
												OFFSET 0.882500 2.642609 0.325652
											}
										}
									}
								}
							}
							JOINT Right_Sleeve
							{
								OFFSET -6.592125 -0.646545 0.805568
								CHANNELS 3 Xrotation Yrotation Zrotation
								End Site
								{
									OFFSET 0.000179 20.275787 -0.000000
								}
							}
						}
					}
				}
				JOINT Bind_Right_JacketString
				{
					OFFSET -3.534800 11.969597 7.200700
					CHANNELS 3 Xrotation Yrotation Zrotation
					JOINT Bind_Right_JacketString1
					{
						OFFSET -0.319900 -6.102600 2.794100
						CHANNELS 3 Xrotation Yrotation Zrotation
						End Site
						{
							OFFSET 0.000000 6.719452 0.000000
						}
					}
				}
				JOINT Bind_Left_JacketString
				{
					OFFSET 2.904800 11.969597 7.200700
					CHANNELS 3 Xrotation Yrotation Zrotation
					JOINT Bind_Left_JacketString1
					{
						OFFSET 0.364800 -5.904503 3.186800
						CHANNELS 3 Xrotation Yrotation Zrotation
						End Site
						{
							OFFSET 0.000000 6.719513 0.000000
						}
					}
				}
				JOINT HairE
				{
					OFFSET 5.915200 17.612701 -11.592200
					CHANNELS 3 Xrotation Yrotation Zrotation
					JOINT HairE1
					{
						OFFSET 0.289200 -7.171898 -1.284500
						CHANNELS 3 Xrotation Yrotation Zrotation
						End Site
						{
							OFFSET 0.000000 7.291756 0.000000
						}
					}
				}
				JOINT HairF
				{
					OFFSET -0.864800 17.612701 -11.592200
					CHANNELS 3 Xrotation Yrotation Zrotation
					JOINT HairF1
					{
						OFFSET 0.000000 -14.087097 -2.127501
						CHANNELS 3 Xrotation Yrotation Zrotation
						End Site
						{
							OFFSET 0.000000 14.246841 0.000000
						}
					}
				}
				JOINT HairG
				{
					OFFSET -8.087700 17.612701 -11.592200
					CHANNELS 3 Xrotation Yrotation Zrotation
					JOINT HairG1
					{
						OFFSET -0.293600 -6.081398 -0.910100
						CHANNELS 3 Xrotation Yrotation Zrotation
						End Site
						{
							OFFSET 0.000000 6.156120 0.000000
						}
					}
				}
			}
		}
	}
	JOINT Pouch
	{
		OFFSET 0.000000 4.394501 10.847300
		CHANNELS 3 Xrotation Yrotation Zrotation
		End Site
		{
			OFFSET 0.000000 21.880577 0.000000
		}
	}
	JOINT Bag
	{
		OFFSET -13.229000 4.813004 -0.593300
		CHANNELS 3 Xrotation Yrotation Zrotation
		End Site
		{
			OFFSET 0.000000 21.880577 0.000000
		}
	}
	JOINT OccupyGuyFacialAnim_Joint
	{
		OFFSET 1.000000 -70.206398 -1.655000
		CHANNELS 3 Xrotation Yrotation Zrotation
		End Site
		{
			OFFSET 0.000000 21.880577 0.000000
		}
	}
}
MOTION
Frames: 4
Frame Time: 0.016667
-4.181796 57.144791 11.013406 15.301075 46.417146 -6.776156 -0.000000 -0.000001 0.000001 -68.989692 -12.949651 -27.325739 71.629587 -50.203297 5.439235 -10.867449 -2.031110 7.454777 0.000000 -0.000001 -0.000000 0.000004 -0.000000 -0.000000 12.836788 -48.444575 3.213969 52.026644 9.382423 -10.171663 -37.943460 -0.260859 -1.658415 0.000000 -0.000000 0.000000 0.000002 -0.000000 -0.000000 8.129166 7.705889 0.010178 2.381663 15.778995 -0.339814 2.404005 15.779125 -0.339341 24.492251 -34.509592 6.782155 -25.202425 -35.567476 -2.580321 0.000000 -0.000000 -0.000001 0.000000 -0.000000 -0.000001 0.000000 -0.000000 -0.000002 0.000000 -0.000000 -0.000001 0.000000 0.000002 0.000001 0.000000 -0.000000 -0.000001 0.000000 0.000002 0.000001 0.000000 -0.000000 -0.000001 0.000000 -0.000000 -0.000001 3.133504 -2.562306 -3.584626 -38.240757 7.071620 -29.653570 51.130332 1.007866 17.797856 -12.087048 -6.543431 6.823684 0.717875 -6.071440 10.111288 2.373405 19.986110 -2.038333 0.000000 -0.000000 -0.000001 9.749539 -2.596986 0.987085 -0.005785 0.241061 -8.886553 -0.000002 0.000003 -0.000001 9.008206 3.812749 -14.287943 0.043546 0.559772 -9.088829 0.000002 0.000001 -0.000001 10.700127 16.687153 -35.234849 0.141860 0.238695 -28.896939 0.000001 0.000001 -0.000001 11.696309 25.216708 -38.134073 0.132794 0.212981 -32.263560 -0.000000 0.000001 0.000005 -0.000001 -0.000001 0.000002 -3.243332 8.889427 -18.987004 -18.337455 -10.441368 2.113101 144.016588 167.285895 -173.359422 -12.660211 -2.965749 -5.790679 9.279831 0.855307 2.186161 1.377834 -17.419909 3.021594 0.000004 0.000000 -0.000000 8.977442 0.914852 -26.573713 -0.055956 -0.245617 0.029084 0.000001 -0.000000 -0.000003 7.645421 -7.256356 -8.401663 0.102463 -0.524311 3.712653 0.000002 -0.000001 0.000001 6.495356 -19.152602 6.388325 0.205309 -0.177343 17.221788 0.000001 -0.000001 -0.000002 8.267309 -27.952802 40.018082 0.357942 -0.175310 49.203187 0.000002 0.000001 0.000001 0.000001 0.000001 0.000001 -0.000000 -0.000000 -0.000001 -0.000000 0.000000 0.000001 -0.000000 -0.000000 0.000001 -0.000000 -0.000000 0.000001 -0.000000 -0.000000 -0.000001 -0.000000 0.000000 0.000001 -0.000000 -0.000000 0.000001 -0.000000 -0.000000 0.000001 -0.000000 -0.000000 -0.000001 -0.000000 0.000000 0.000001 -0.000000 -0.000001 0.000001 -0.000000 -0.000001 0.000001 -0.000000 -0.000001 0.000001 
-4.003983 57.254601 11.014733 14.889433 44.951370 -6.426034 -0.000000 0.000001 0.000001 -68.588678 -12.920800 -26.602479 71.509840 -49.470715 5.296836 -11.140756 -2.057504 7.392168 0.000000 -0.000000 -0.000000 0.000000 0.000001 -0.000000 12.228498 -47.043208 2.280464 52.058951 10.035290 -10.121891 -37.677871 -0.573795 -1.907789 -0.000001 -0.000001 -0.000000 0.000000 0.000000 0.000001 8.163177 7.670944 -0.026844 2.453883 15.715406 -0.410862 2.476205 15.715454 -0.410365 24.483088 -34.297815 7.138971 -25.083002 -35.421948 -2.270472 0.000000 0.000001 -0.000001 0.000000 0.000001 -0.000001 0.000000 0.000001 -0.000001 0.000000 0.000001 -0.000000 -0.000000 0.000002 0.000001 0.000000 0.000001 -0.000000 -0.000000 0.000002 0.000001 0.000000 0.000001 -0.000001 0.000000 0.000001 -0.000001 3.030144 -2.053836 -3.444216 -34.893633 7.814702 -28.841410 51.215255 1.798532 17.534518 -13.743610 -6.963615 5.081472 0.690169 -6.257974 9.347858 2.373405 19.986112 -2.038335 0.000001 0.000003 -0.000000 9.889661 -2.215682 0.150827 -0.005907 0.241170 -9.214052 -0.000003 -0.000002 0.000001 9.055366 4.126233 -14.668287 0.045013 0.562278 -9.437236 0.000004 0.000003 -0.000001 10.739784 16.814758 -35.132184 0.137645 0.239633 -28.699314 -0.000001 0.000003 -0.000001 11.760299 25.391560 -38.044328 0.132615 0.213283 -32.330362 -0.000002 -0.000002 0.000003 0.000003 -0.000001 0.000000 -3.234088 9.381073 -18.988030 -20.179971 -10.125691 2.111673 144.235208 166.478758 -172.151612 -12.150575 -4.188262 -6.691110 9.387990 0.822760 2.124785 1.377816 -17.419918 3.021604 -0.000003 -0.000001 -0.000000 9.067882 0.695032 -25.814418 -0.051495 -0.245701 0.064845 0.000001 0.000000 -0.000001 7.626668 -7.125907 -7.923842 0.102855 -0.525821 3.951773 0.000001 -0.000001 -0.000001 6.454389 -18.622958 6.787676 0.200245 -0.179019 17.261577 -0.000002 0.000002 0.000001 7.978934 -28.024632 39.947140 0.355171 -0.175852 48.983303 -0.000002 -0.000001 0.000000 0.000001 0.000001 -0.000000 -0.000001 -0.000000 -0.000001 0.000001 -0.000000 0.000001 -0.000001 -0.000000 -0.000001 -0.000001 -0.000000 -0.000001 -0.000001 -0.000000 -0.000001 0.000001 -0.000000 0.000001 -0.000001 -0.000000 -0.000001 -0.000001 -0.000000 -0.000001 -0.000001 -0.000000 -0.000001 0.000001 -0.000000 0.000001 -0.000000 0.000001 0.000001 -0.000000 0.000001 0.000001 -0.000000 0.000001 0.000001 
-3.803133 57.369743 11.021439 14.360184 43.318163 -5.986863 0.000000 -0.000001 0.000000 -68.075143 -12.845745 -25.785023 71.413275 -48.652199 5.132352 -11.453192 -2.089497 7.323564 -0.000000 -0.000000 -0.000000 -0.000001 -0.000001 0.000000 11.680552 -45.553913 1.310631 51.841747 9.297374 -10.130205 -37.400757 0.199706 -1.187429 -0.000004 -0.000001 0.000000 -0.000001 -0.000000 -0.000000 8.188334 7.632803 -0.081570 2.510249 15.645950 -0.515673 2.532592 15.646048 -0.515182 24.400721 -34.088262 7.703133 -24.875687 -35.237636 -1.959298 0.000003 0.000001 0.000002 0.000003 0.000001 0.000002 0.000003 0.000001 0.000001 0.000003 0.000001 0.000003 0.000002 0.000000 0.000001 0.000003 0.000001 0.000003 0.000002 0.000000 0.000001 0.000003 0.000001 0.000002 0.000003 0.000001 0.000002 2.904507 -1.393836 -3.364781 -31.432667 8.742947 -28.038415 51.355697 2.474100 17.546589 -14.985689 -7.307988 3.153635 0.630783 -6.463492 8.584047 2.373406 19.986109 -2.038333 0.000002 0.000001 0.000003 10.025384 -1.815704 -0.661305 -0.006045 0.241280 -9.522520 -0.000000 0.000003 -0.000001 9.103783 4.430279 -15.033806 0.046502 0.564858 -9.784038 0.000002 0.000002 0.000003 10.772725 16.882064 -35.025313 0.133033 0.240888 -28.494055 0.000002 0.000002 -0.000001 11.843079 25.575869 -38.001134 0.132583 0.213750 -32.423851 -0.000000 0.000002 -0.000000 0.000002 -0.000000 -0.000001 -3.144801 9.710543 -18.951716 -22.316885 -9.294422 2.336563 144.310873 166.066201 -170.952094 -11.502434 -5.129986 -7.348383 9.669553 0.616299 2.214285 1.377772 -17.419909 3.021583 -0.000001 0.000000 -0.000000 9.166958 0.351632 -24.705366 -0.047736 -0.246330 0.536666 0.000003 0.000001 0.000000 7.623389 -7.047095 -7.050670 0.103809 -0.528118 4.369232 0.000002 0.000000 -0.000001 6.475547 -18.077207 7.614151 0.194427 -0.181334 17.489908 -0.000000 -0.000002 0.000002 7.820566 -27.942579 40.349981 0.353073 -0.176027 48.987111 -0.000004 0.000003 -0.000001 0.000005 -0.000000 -0.000000 0.000001 -0.000000 -0.000003 0.000002 -0.000001 -0.000002 0.000001 -0.000000 -0.000003 0.000001 -0.000000 -0.000003 0.000001 -0.000000 -0.000003 0.000002 -0.000001 -0.000002 0.000001 -0.000000 -0.000003 0.000001 -0.000000 -0.000003 0.000001 -0.000000 -0.000003 0.000002 -0.000001 -0.000002 0.000000 -0.000001 0.000000 0.000000 -0.000001 0.000000 0.000000 -0.000001 0.000000 
-3.584610 57.487328 11.026480 13.746704 41.593830 -5.495294 0.000000 -0.000002 -0.000000 -67.477686 -12.756852 -24.951979 71.338922 -47.735694 4.968598 -11.804019 -2.122597 7.229484 -0.000000 0.000000 -0.000000 -0.000006 0.000000 -0.000000 11.177479 -44.033707 0.216844 51.804533 9.556652 -10.065721 -37.116505 0.263980 -1.036601 -0.000001 -0.000000 0.000000 -0.000001 0.000000 -0.000000 8.225546 7.566215 -0.140275 2.590917 15.519607 -0.627982 2.613256 15.519672 -0.627484 23.964945 -33.896487 8.093917 -24.622557 -35.034219 -1.643723 0.000001 0.000001 -0.000001 0.000001 0.000001 -0.000001 0.000001 0.000001 -0.000002 0.000001 0.000001 -0.000001 0.000000 -0.000000 -0.000001 0.000001 0.000001 -0.000001 0.000000 -0.000000 -0.000001 0.000001 0.000001 -0.000001 0.000001 0.000001 -0.000001 2.760277 -0.547901 -3.344328 -27.854191 9.898199 -27.279950 51.514376 3.115332 17.933599 -15.929261 -7.467011 0.985766 0.527118 -6.696434 7.834173 2.373406 19.986110 -2.038335 0.000001 -0.000000 0.000001 10.153719 -1.387405 -1.422231 -0.006224 0.241367 -9.803554 0.000003 0.000005 -0.000003 9.151808 4.724955 -15.358944 0.048187 0.567339 -10.114810 0.000005 0.000001 -0.000003 10.792659 16.881077 -34.884614 0.127723 0.242432 -28.266103 0.000001 0.000001 -0.000001 11.932722 25.749502 -37.966716 0.132608 0.214243 -32.522106 0.000000 -0.000001 0.000003 0.000004 -0.000001 0.000002 -3.150913 9.830085 -18.703799 -24.875214 -7.756490 2.628343 144.587346 165.957478 -169.821821 -10.795660 -5.821805 -7.801419 10.147162 0.218068 2.483476 1.377822 -17.419897 3.021634 0.000000 0.000000 -0.000001 9.294116 -0.101589 -23.043808 -0.044930 -0.247253 1.135088 -0.000001 -0.000002 0.000003 7.644646 -7.010153 -5.719505 0.105638 -0.531404 5.013997 0.000008 -0.000002 -0.000001 6.566120 -17.505213 8.934423 0.187953 -0.184183 17.963232 -0.000003 0.000000 -0.000002 7.824122 -27.677462 41.312481 0.351839 -0.175981 49.270174 -0.000000 0.000001 0.000002 -0.000001 -0.000001 -0.000000 0.000001 -0.000000 0.000000 -0.000000 0.000000 0.000001 0.000001 -0.000000 0.000001 0.000001 -0.000000 0.000001 0.000001 -0.000000 0.000000 -0.000000 0.000000 0.000001 0.000001 -0.000000 0.000001 0.000001 -0.000000 0.000001 0.000001 -0.000000 0.000000 -0.000000 0.000000 0.000001 0.000000 -0.000002 -0.000000 0.000000 -0.000002 -0.000000 0.000000 -0.000002 -0.000000 
